<?xml version="1.0" standalone="no"?><!DOCTYPE svg PUBLIC "-//W3C//DTD SVG 1.1//EN" "http://www.w3.org/Graphics/SVG/1.1/DTD/svg11.dtd"><svg t="1531272353372" class="icon" style="" viewBox="0 0 1024 1024" version="1.1" xmlns="http://www.w3.org/2000/svg" p-id="9111" xmlns:xlink="http://www.w3.org/1999/xlink" width="200" height="200"><defs><style type="text/css"></style></defs><path d="M531.192944 736.105843c-23.144432 1.128997-47.417861 1.693495-71.126792 1.693495-229.186329 0-417.164278-45.159868-442.566703-104.432194-2.257993 4.515987-3.38699 9.031974-3.38699 13.54796l0 117.415656c5.080485 63.223815 202.654906 114.593164 445.389195 114.593164 62.094818 0 120.802646-3.38699 174.429989-9.596472C586.513782 836.586549 550.950386 789.733186 531.192944 736.105843z" p-id="9112"></path><path d="M513.693495 638.44763c0-40.643881 8.467475-79.029768 23.708931-113.464168-25.402426 1.128997-51.36935 1.693495-77.900772 1.693495-229.750827 0-417.164278-45.159868-442.566703-104.432194-2.257993 4.515987-3.38699 9.596472-3.38699 14.112459l0 117.415656c5.080485 63.223815 202.654906 114.593164 445.389195 114.593164 19.192944 0 37.821389-0.564498 56.449835-1.128997C514.257993 657.640573 513.693495 648.6086 513.693495 638.44763z" p-id="9113"></path><path d="M797.071665 355.06946c37.256891 0 73.384785 7.338479 106.125689 20.886439 0.564498-2.257993 1.128997-4.515987 1.693495-7.338479L904.890849 251.201764c0-64.352811-199.832415-117.415656-445.389195-117.415656-246.121279 0-445.389195 53.062845-445.953693 117.415656l0 117.415656c5.080485 63.223815 202.654906 114.593164 445.953693 114.593164 34.998897 0 69.433297-1.128997 102.738699-3.38699C613.045204 404.745314 699.413451 355.06946 797.071665 355.06946z" p-id="9114"></path><path d="M797.071665 411.519294c-125.318633 0-226.928335 101.609702-226.928335 226.928335 0 125.318633 101.609702 226.928335 226.928335 226.928335 125.318633 0 226.928335-101.609702 226.928335-226.928335C1024 513.128997 922.390298 411.519294 797.071665 411.519294zM822.47409 663.850055l0 160.31753-50.804851 0 0-160.31753-160.31753 0 0-50.804851 160.31753 0L771.669239 453.292172l50.804851 0 0 160.31753L982.227122 613.609702l0 50.240353L822.47409 663.850055z" p-id="9115"></path></svg>