<?xml version="1.0" standalone="no"?><!DOCTYPE svg PUBLIC "-//W3C//DTD SVG 1.1//EN" "http://www.w3.org/Graphics/SVG/1.1/DTD/svg11.dtd"><svg t="1553152175912" class="icon" style="" viewBox="0 0 1024 1024" version="1.1" xmlns="http://www.w3.org/2000/svg" p-id="827" xmlns:xlink="http://www.w3.org/1999/xlink" width="200" height="200"><defs><style type="text/css"></style></defs><path d="M481.1 535.9L116.8 357.8c-15-10.5-16.4-56.1 0-62.8l364.3-178.1c20.6-10.2 39.9-12.5 62.8 0L906.4 295c14.9 12 19.9 47.7 0 62.8L543.9 535.9c-20.6 8.6-44.9 9.8-62.8 0z" fill="#dbdbdb" p-id="828"></path><path d="M912.4 489.9c-12.7-26.2-44.2-37.1-70.4-24.4L511.4 626.2 180.7 465.5c-26.2-12.7-57.7-1.8-70.4 24.4-12.7 26.2-1.8 57.7 24.4 70.4l349.2 169.6c8.9 4.3 18.4 5.9 27.6 5.1 9.2 0.8 18.7-0.8 27.6-5.1l349.2-169.6c25.9-12.7 36.9-44.3 24.1-70.4z" fill="#dbdbdb" p-id="829"></path><path d="M912.4 670.9c-12.7-26.2-44.2-37.1-70.4-24.4L511.4 807.2 180.7 646.5c-26.2-12.7-57.7-1.8-70.4 24.4-12.7 26.2-1.8 57.7 24.4 70.4l349.2 169.6c8.9 4.3 18.4 5.9 27.6 5.1 9.2 0.8 18.7-0.8 27.6-5.1l349.2-169.6c25.9-12.7 36.9-44.3 24.1-70.4z" fill="#dbdbdb" p-id="830"></path></svg>