<?xml version="1.0" standalone="no"?><!DOCTYPE svg PUBLIC "-//W3C//DTD SVG 1.1//EN" "http://www.w3.org/Graphics/SVG/1.1/DTD/svg11.dtd"><svg t="1530837261107" class="icon" style="" viewBox="0 0 1024 1024" version="1.1" xmlns="http://www.w3.org/2000/svg" p-id="2489" xmlns:xlink="http://www.w3.org/1999/xlink" width="200" height="200"><defs><style type="text/css"></style></defs><path d="M512 42.65984q95.66208 0 182.49728 37.1712t149.66784 100.00384 100.00384 149.66784 37.1712 182.49728-37.1712 182.49728-100.00384 149.66784-149.66784 100.00384-182.49728 37.1712-182.49728-37.1712-149.66784-100.00384-100.00384-149.66784-37.1712-182.49728 37.1712-182.49728 100.00384-149.66784 149.66784-100.00384 182.49728-37.1712zM512 128q-78.00832 0-149.17632 30.49472t-122.49088 81.83808-81.83808 122.49088-30.49472 149.17632 30.49472 149.17632 81.83808 122.49088 122.49088 81.83808 149.17632 30.49472 149.17632-30.49472 122.49088-81.83808 81.83808-122.49088 30.49472-149.17632-30.49472-149.17632-81.83808-122.49088-122.49088-81.83808-149.17632-30.49472zM512 213.34016q17.67424 0 30.16704 12.4928t12.4928 30.16704l0 238.32576 115.67104 115.32288q12.32896 12.32896 12.32896 30.33088t-12.32896 30.33088-30.33088 12.32896-30.33088-12.32896l-128-128q-12.32896-12.32896-12.32896-30.33088l0-256q0-17.67424 12.4928-30.16704t30.16704-12.4928z" p-id="2490"></path></svg>