<?xml version="1.0" standalone="no"?><!DOCTYPE svg PUBLIC "-//W3C//DTD SVG 1.1//EN" "http://www.w3.org/Graphics/SVG/1.1/DTD/svg11.dtd"><svg t="1550739402205" class="icon" style="" viewBox="0 0 1024 1024" version="1.1" xmlns="http://www.w3.org/2000/svg" p-id="854" xmlns:xlink="http://www.w3.org/1999/xlink" width="200" height="200"><defs><style type="text/css"></style></defs><path d="M981.252681 767.868023 639.978004 767.868023C616.408721 767.868023 597.318669 748.77797 597.318669 725.208688 580.660199 708.550218 573.898694 688.287034 582.238594 679.968464L702.900522 559.306536C711.219093 550.966636 731.482276 557.72814 748.140747 574.386611 764.799217 591.045081 771.560721 611.308265 763.220821 619.626835L700.298303 682.549353 981.252681 682.549353C1004.821963 682.549353 1023.912015 701.639406 1023.912015 725.208688 1023.912015 748.77797 1004.821963 767.868023 981.252681 767.868023ZM853.274677 533.241682C853.274677 533.241682 853.274677 533.241682 853.274677 533.241682L853.274677 554.57135 847.366359 554.57135C839.964964 567.262502 826.356637 575.901017 810.615342 575.901017 794.874048 575.901017 781.26572 567.262502 773.864325 554.57135L767.956008 554.57135 767.956008 477.61391C690.273359 511.378773 566.433311 533.241682 426.681331 533.241682 286.929351 533.241682 163.089302 511.378773 85.406654 477.61391L85.406654 639.890019 113.369848 639.890019C144.02058 664.227169 277.394989 682.549353 437.346164 682.549353 455.519041 682.549353 473.286654 682.293397 490.670333 681.824145L490.670333 682.549353 490.670333 682.549353C514.239615 682.549353 533.329667 701.639406 533.329667 725.208688 533.329667 748.77797 514.239615 767.868023 490.670333 767.868023 487.02296 767.868023 483.567553 767.270792 480.176136 766.417605 462.600491 767.185473 444.918196 767.868023 426.681331 767.868023 286.929351 767.868023 163.089302 746.005114 85.406654 712.24025L85.406654 895.846026 0.087985 895.846026 0.087985 127.978004 1.751699 127.978004C18.559477 56.41697 202.165253 0 426.681331 0 651.197409 0 834.803185 56.41697 851.610963 127.978004L853.274677 127.978004 853.274677 138.642837C853.274677 138.642837 853.274677 138.642837 853.274677 138.642837 853.274677 138.642837 853.274677 138.642837 853.274677 138.642837L853.274677 533.241682C853.274677 533.241682 853.274677 533.241682 853.274677 533.241682ZM767.956008 138.642837C767.934678 109.186567 619.928117 85.318669 437.346164 85.318669 254.764212 85.318669 106.736321 109.186567 106.736321 138.642837 106.736321 168.099108 254.764212 191.967006 437.346164 191.967006 619.928117 191.967006 767.934678 168.099108 767.956008 138.642837L767.956008 138.642837ZM767.956008 221.572584C690.145381 255.337447 566.454641 277.285675 426.681331 277.285675 286.908021 277.285675 163.21728 255.337447 85.406654 221.572584L85.406654 405.263679 113.369848 405.263679C144.02058 429.600829 277.394989 447.923013 437.346164 447.923013 597.29734 447.923013 730.671749 429.600829 761.322481 405.263679L767.956008 405.263679 767.956008 221.572584ZM437.346164 938.505361C455.519041 938.505361 473.286654 938.249405 490.670333 937.780152L490.670333 938.505361 490.670333 938.505361C514.239615 938.505361 533.329667 957.595413 533.329667 981.164696 533.329667 1004.733978 514.239615 1023.82403 490.670333 1023.82403 487.065619 1023.82403 483.610213 1023.248129 480.261455 1022.394943 462.64315 1023.141481 444.939526 1023.82403 426.681331 1023.82403 202.165253 1023.82403 18.559477 967.40706 1.751699 895.846026L113.369848 895.846026C144.02058 920.183177 277.394989 938.505361 437.346164 938.505361ZM618.648336 810.527357 962.589222 810.527357C986.158504 810.527357 1005.248556 829.61741 1005.248556 853.186692 1005.248556 853.357329 1005.205897 853.506637 1005.205897 853.677274 1021.907026 870.399733 1028.689861 890.641588 1020.285972 898.981488L898.173626 1020.411283C889.748408 1028.793843 869.250598 1021.989679 852.378831 1005.22456 835.528394 988.459442 828.7029 968.06828 837.128119 959.685721L901.330417 895.846026 618.648336 895.846026C595.079054 895.846026 575.989002 876.755974 575.989002 853.186692 575.989002 829.61741 595.079054 810.527357 618.648336 810.527357Z" p-id="855"></path></svg>