<?xml version="1.0" standalone="no"?><!DOCTYPE svg PUBLIC "-//W3C//DTD SVG 1.1//EN" "http://www.w3.org/Graphics/SVG/1.1/DTD/svg11.dtd"><svg t="1541054177793" class="icon" style="" viewBox="0 0 1024 1024" version="1.1" xmlns="http://www.w3.org/2000/svg" p-id="1931" xmlns:xlink="http://www.w3.org/1999/xlink" width="200" height="200"><defs><style type="text/css"></style></defs><path d="M479.254202 711.687972l0-212.847689c0-18.083867-14.661931-32.745798-32.745798-32.745798s-32.745798 14.661931-32.745798 32.745798l0 212.847689c0 18.083867 14.661931 32.745798 32.745798 32.745798S479.254202 729.771839 479.254202 711.687972z" p-id="1932" fill="#f56c6c"></path><path d="M610.237395 711.687972l0-212.847689c0-18.083867-14.661931-32.745798-32.745798-32.745798s-32.745798 14.661931-32.745798 32.745798l0 212.847689c0 18.083867 14.661931 32.745798 32.745798 32.745798S610.237395 729.771839 610.237395 711.687972z" p-id="1933" fill="#f56c6c"></path><path d="M727.118406 377.794415c-18.083867 0-32.745798 14.661931-32.745798 32.745798l0 374.618073c0 10.105149-8.330736 18.339694-18.579147 18.339694L348.20654 803.49798c-10.249435 0-18.579147-8.234545-18.579147-18.339694L329.627393 410.540214c0-18.083867-14.661931-32.745798-32.745798-32.745798s-32.745798 14.661931-32.745798 32.745798l0 374.618073c0 46.224788 37.718043 83.83129 84.070744 83.83129l327.585897 0c46.352701 0 84.070744-37.606503 84.070744-83.83129L759.863181 410.540214C759.864204 392.45737 745.20125 377.794415 727.118406 377.794415z" p-id="1934" fill="#f56c6c"></path><path d="M839.457983 253.246795l-130.983193 0 0-12.862959c0-47.072085-38.294165-85.374436-85.36625-85.374436L400.89146 155.0094c-47.072085 0-85.36625 38.302351-85.36625 85.374436l0 12.862959-130.983193 0c-18.083867 0-32.745798 14.661931-32.745798 32.745798s14.661931 32.745798 32.745798 32.745798l654.915967 0c18.083867 0 32.745798-14.661931 32.745798-32.745798S857.541851 253.246795 839.457983 253.246795zM642.983193 253.246795l-261.966387 0 0-12.862959c0-10.960633 8.922207-19.882839 19.874653-19.882839l222.217081 0c10.952446 0 19.874653 8.922207 19.874653 19.882839L642.983193 253.246795z" p-id="1935" fill="#f56c6c"></path></svg>