<?xml version="1.0" standalone="no"?><!DOCTYPE svg PUBLIC "-//W3C//DTD SVG 1.1//EN" "http://www.w3.org/Graphics/SVG/1.1/DTD/svg11.dtd"><svg t="1542767763800" class="icon" style="" viewBox="0 0 1024 1024" version="1.1" xmlns="http://www.w3.org/2000/svg" p-id="1770" xmlns:xlink="http://www.w3.org/1999/xlink" width="200" height="200"><defs><style type="text/css"></style></defs><path d="M195.263 241.913h632.56v402.284l52.845 46.594v-471.61c0-26.569-21.54-48.11-48.11-48.11H190.53c-26.572 0-48.112 21.541-48.112 48.11v583.313c0 26.57 21.54 48.11 48.112 48.11h498.953l-42.185-57.227H195.263V241.913z" p-id="1771" fill="#e6e6e6"></path><path d="M863.578 767.908L733.424 657.147c-13.456-12.107-27.878-17.642-39.487-17.105 30.733-36.027 49.284-82.719 49.284-133.736 0-113.81-92.252-206.087-206.098-206.087-113.851 0-206.095 92.278-206.095 206.087 0 113.81 92.244 206.088 206.095 206.088 51.051 0 97.713-18.55 133.735-49.274-0.57 11.604 5.036 25.99 17.142 39.446l110.697 130.18c18.99 21.064 49.914 22.84 68.833 3.955 18.888-18.88 17.112-49.873-3.952-68.793z m-326.455-124.21c-75.879 0-137.396-61.52-137.396-137.391 0-75.876 61.517-137.39 137.396-137.39 75.874 0 137.398 61.514 137.398 137.39 0 75.87-61.523 137.39-137.398 137.39z" p-id="1772" fill="#e6e6e6"></path></svg>