<?xml version="1.0" standalone="no"?><!DOCTYPE svg PUBLIC "-//W3C//DTD SVG 1.1//EN" "http://www.w3.org/Graphics/SVG/1.1/DTD/svg11.dtd"><svg t="1522373444964" class="icon" style="" viewBox="0 0 1024 1024" version="1.1" xmlns="http://www.w3.org/2000/svg" p-id="8504" xmlns:xlink="http://www.w3.org/1999/xlink" width="200" height="200"><defs><style type="text/css"></style></defs><path d="M512 0C229.216 0 0 71.648 0 160l0 96 384 384 0 320c0 35.36 57.312 64 128 64 70.688 0 128-28.64 128-64L640 640l384-384L1024 160C1024 71.648 794.784 0 512 0zM94.4 138.816c23.936-13.664 57.568-26.624 97.28-37.472C279.616 77.248 393.376 64 512 64c118.624 0 232.384 13.248 320.352 37.344 39.68 10.88 73.344 23.84 97.28 37.472 15.776 8.992 24.32 16.608 28.288 21.184-3.968 4.544-12.512 12.16-28.288 21.184-23.936 13.664-57.6 26.624-97.28 37.472C744.384 242.752 630.624 256 512 256c-118.624 0-232.384-13.248-320.352-37.344-39.68-10.88-73.344-23.84-97.28-37.472C78.592 172.16 70.048 164.544 66.08 160 70.048 155.456 78.592 147.84 94.4 138.816z" p-id="8505"></path></svg>