<?xml version="1.0" standalone="no"?><!DOCTYPE svg PUBLIC "-//W3C//DTD SVG 1.1//EN" "http://www.w3.org/Graphics/SVG/1.1/DTD/svg11.dtd"><svg t="1561541115701" class="icon" viewBox="0 0 1024 1024" version="1.1" xmlns="http://www.w3.org/2000/svg" p-id="1901" xmlns:xlink="http://www.w3.org/1999/xlink" width="200" height="200"><defs><style type="text/css"></style></defs><path d="M960.984615 187.076923L677.415385 45.292308c-13.784615-5.907692-29.538462-5.907692-41.353847 0L374.153846 177.230769 110.276923 45.292308c-15.753846-7.876923-35.446154-7.876923-49.230769 1.96923-13.784615 7.876923-21.661538 23.630769-21.661539 39.384616v708.923077c0 17.723077 9.846154 33.476923 25.6 41.353846l283.569231 141.784615c13.784615 5.907692 29.538462 5.907692 41.353846 0L653.784615 846.769231l261.907693 131.938461c5.907692 3.938462 13.784615 5.907692 21.661538 5.907693 7.876923 0 17.723077-1.969231 25.6-7.876923 13.784615-7.876923 21.661538-23.630769 21.661539-39.384616v-708.923077c0-17.723077-7.876923-33.476923-23.63077-41.353846zM886.153846 277.661538v374.153847c0 21.661538-19.692308 37.415385-39.384615 29.538461-72.861538-27.569231-13.784615-149.661538-66.953846-216.615384-49.230769-61.046154-112.246154 1.969231-173.292308-94.523077-57.107692-92.553846 19.692308-159.507692 90.584615-194.953847 9.846154-3.938462 19.692308-3.938462 27.569231 0l145.723077 72.861539c11.815385 5.907692 15.753846 17.723077 15.753846 29.538461zM490.338462 825.107692c-11.815385 5.907692-25.6 3.938462-35.446154-3.938461-19.692308-17.723077-35.446154-45.292308-35.446154-72.861539 0-47.261538-78.769231-31.507692-78.769231-126.030769 0-76.8-90.584615-96.492308-167.384615-88.615385-19.692308 1.969231-33.476923-11.815385-33.476923-31.507692V214.646154c0-23.630769 23.630769-39.384615 43.323077-27.569231l169.353846 84.676923c1.969231 0 3.938462 1.969231 3.938461 1.969231l5.907693 3.938461c70.892308 41.353846 57.107692 74.830769 27.56923 126.03077-33.476923 57.107692-47.261538 0-94.523077-15.753846s-94.523077 15.753846-78.76923 47.261538 63.015385 0 94.523077 31.507692 31.507692 78.769231 126.030769 47.261539 110.276923-15.753846 141.784615 15.753846c31.507692 31.507692 47.261538 94.523077 0 141.784615-27.569231 27.569231-39.384615 86.646154-51.2 126.03077-1.969231 7.876923-7.876923 15.753846-15.753846 19.692307l-21.661538 7.876923z" p-id="1902"></path></svg>