<?xml version="1.0" standalone="no"?><!DOCTYPE svg PUBLIC "-//W3C//DTD SVG 1.1//EN" "http://www.w3.org/Graphics/SVG/1.1/DTD/svg11.dtd"><svg t="1548404332160" class="icon" style="" viewBox="0 0 1024 1024" version="1.1" xmlns="http://www.w3.org/2000/svg" p-id="1827" xmlns:xlink="http://www.w3.org/1999/xlink" width="200" height="200"><defs><style type="text/css"></style></defs><path d="M810.3 648.3V215.1c0-83.4-67.8-151.2-151.2-151.2H363.3c-83.4 0-151.2 67.8-151.2 151.2v433.2h598.2zM212.1 716.6v91.8c0 83.4 67.8 151.2 151.2 151.2h295.8c83.4 0 151.2-67.8 151.2-151.2v-91.8H212.1zM511.2 893c-34.1 0-61.8-27.7-61.8-61.8 0-34.1 27.7-61.8 61.8-61.8s61.8 27.7 61.8 61.8c0 34.1-27.7 61.8-61.8 61.8z" p-id="1828"></path></svg>