<?xml version="1.0" standalone="no"?><!DOCTYPE svg PUBLIC "-//W3C//DTD SVG 1.1//EN" "http://www.w3.org/Graphics/SVG/1.1/DTD/svg11.dtd"><svg t="1524539720894" class="icon" style="" viewBox="0 0 1024 1024" version="1.1" xmlns="http://www.w3.org/2000/svg" p-id="1805" xmlns:xlink="http://www.w3.org/1999/xlink" width="200" height="200"><defs><style type="text/css"></style></defs><path d="M304.28 509.818c30.015 0 59.805-30.443 59.805-59.783s-29.79-59.805-59.805-59.805c-30.015 0-59.805 30.443-59.805 59.805s29.768 59.782 59.805 59.782zM782.608 270.643h-657.72c-30.015 0-59.805 30.465-59.805 59.805v478.35c0 29.34 29.768 59.76 59.805 59.76h657.72c30.015 0 59.783-30.442 59.783-59.76v-478.35c0.022-29.34-29.767-59.805-59.783-59.805zM782.608 808.798h-657.72v-179.393c43.74 22.050 102.983 59.782 179.37 59.782 58.86 0 123.097-29.205 179.392-59.782 58.073-31.567 104.513-59.805 149.49-59.805 55.62 0 113.085 36.203 149.49 59.805v179.393zM782.608 569.623c-36.675-23.558-102.87-59.783-149.49-59.783-44.797 0-83.273 33.547-149.49 59.783-58.568 23.22-117.315 59.805-175.185 59.805-77.333 0-139.41-37.665-183.578-59.805v-239.175h657.72v239.175zM334.183 151.055v59.805h568.035v508.23h59.783v-568.035h-627.817z" p-id="1806" fill="#8a8a8a"></path></svg>