<?xml version="1.0" standalone="no"?><!DOCTYPE svg PUBLIC "-//W3C//DTD SVG 1.1//EN" "http://www.w3.org/Graphics/SVG/1.1/DTD/svg11.dtd"><svg t="1550646796557" class="icon" style="" viewBox="0 0 1024 1024" version="1.1" xmlns="http://www.w3.org/2000/svg" p-id="645" xmlns:xlink="http://www.w3.org/1999/xlink" width="200" height="200"><defs><style type="text/css"></style></defs><path d="M830.136 0H193.864C86.99 0 0 86.99 0 193.864v636.272C0 937.01 86.99 1024 193.864 1024H457.32c19.884 0 37.282-17.398 37.282-37.282s-17.398-37.281-37.282-37.281H193.864c-67.107 0-119.3-54.68-119.3-119.301V193.864c0-64.621 54.679-119.3 119.3-119.3h636.272c67.107 0 119.3 54.679 119.3 119.3v464.777c-12.426-4.971-22.368-7.457-34.795-7.457h-82.02c-94.446 0-171.495 77.049-171.495 171.496v106.873c0 52.195 42.253 94.447 94.447 94.447h74.563C937.01 1024 1024 937.01 1024 830.136V193.864C1024 86.99 937.01 0 830.136 0z m119.3 830.136c0 67.107-54.679 119.3-119.3 119.3h-74.563c-9.942 0-19.884-7.455-19.884-19.883V822.68c0-52.195 42.253-96.932 96.932-96.932h82.02c19.883 0 34.796 14.912 34.796 34.796v69.592z" p-id="646"></path><path d="M211.262 295.767h109.36c19.883 0 37.28-17.398 37.28-37.282s-17.397-37.281-37.28-37.281h-109.36c-19.883-2.486-37.281 14.913-37.281 34.796s17.398 39.767 37.281 39.767z m0 236.116h228.66c19.884 0 37.282-17.398 37.282-37.281s-17.398-37.282-37.282-37.282h-228.66c-19.883 0-37.281 17.398-37.281 37.282s17.398 37.281 37.281 37.281z m372.816 164.04H211.262c-19.883 0-37.281 17.397-37.281 37.28s17.398 37.282 37.281 37.282h372.816c19.883 0 37.281-17.398 37.281-37.281s-17.398-37.282-37.281-37.282z m-59.65-514.486c-2.486-4.971-7.457-7.456-14.913-9.942-4.971 0-12.428 2.486-14.913 7.456-34.796 44.738-37.282 104.389-7.456 151.612 27.34 42.253 74.563 64.621 124.271 59.65l134.214 221.204c4.97 9.942 14.913 17.399 27.34 19.884h9.942c7.456 0 14.912-2.485 22.369-7.456l34.796-22.37c9.941-4.97 17.398-14.912 19.883-27.34 2.486-9.94 0-22.368-4.97-32.31L713.32 325.592c24.854-42.252 24.854-96.932 0-139.184-29.826-44.738-82.02-69.592-134.214-59.65-4.971 0-12.427 4.97-12.427 9.941-2.486 4.97-2.486 12.427 2.485 17.398l42.252 67.107-42.252 27.34-44.738-67.107z m116.815 67.107c4.97-2.486 7.456-7.457 7.456-12.427s0-9.942-2.485-14.913l-34.797-54.68c27.34 2.486 52.195 19.884 67.107 42.253 19.884 32.31 19.884 74.563-4.97 106.873-4.971 7.457-4.971 14.913 0 22.37L822.68 564.193v2.486s0 2.485-2.486 2.485l-34.796 22.369h-2.485s-2.486 0-2.486-2.485l-141.67-231.146c-2.485-4.971-9.941-9.942-14.912-9.942h-4.971c-37.282 7.456-77.049-7.456-99.418-42.252-14.912-24.855-19.883-54.68-7.456-82.02l37.282 57.165c4.97 9.942 17.398 12.428 24.854 4.971l67.107-37.281z" p-id="647"></path></svg>