<?xml version="1.0" standalone="no"?><!DOCTYPE svg PUBLIC "-//W3C//DTD SVG 1.1//EN" "http://www.w3.org/Graphics/SVG/1.1/DTD/svg11.dtd"><svg t="1540370202618" class="icon" style="" viewBox="0 0 1024 1024" version="1.1" xmlns="http://www.w3.org/2000/svg" p-id="1974" xmlns:xlink="http://www.w3.org/1999/xlink" width="200" height="200"><defs><style type="text/css"></style></defs><path d="M425.788952 331.873524h-172.446476V116.321524h172.446476v215.552z m-129.340952-43.105524h86.211048V159.451429h-86.211048v129.316571zM770.657524 331.873524h-172.446476V116.321524h172.446476v215.552z m-129.316572-43.105524h86.211048V159.451429h-86.211048v129.316571z" p-id="1975"></path><path d="M986.209524 935.399619H37.790476V202.556952h172.446476v43.105524H80.896v646.631619h862.183619V245.662476h-129.316571V202.556952h172.422095v732.842667z" p-id="1976"></path><path d="M555.129905 245.662476h-86.235429V202.556952h86.235429v43.105524zM770.657524 633.660952H252.757333l0.585143-43.129904h517.315048v43.129904zM770.657524 762.953143H253.342476v-43.081143h517.315048v43.081143zM943.104 461.214476H80.896v-43.129905h862.183619v43.129905z" p-id="1977"></path></svg>