<?xml version="1.0" standalone="no"?><!DOCTYPE svg PUBLIC "-//W3C//DTD SVG 1.1//EN" "http://www.w3.org/Graphics/SVG/1.1/DTD/svg11.dtd"><svg t="1539154110269" class="icon" style="" viewBox="0 0 1024 1024" version="1.1" xmlns="http://www.w3.org/2000/svg" p-id="1142" xmlns:xlink="http://www.w3.org/1999/xlink" width="200" height="200"><defs><style type="text/css"></style></defs><path d="M354.88 125.888A164.16 164.16 0 0 1 513.856 0c76.416 0 140.608 52.928 158.656 124.544a463.616 463.616 0 0 1 301.44 435.84c0 29.504-2.816 58.496-8.064 86.528 35.584 30.4 58.112 75.776 58.112 126.528 0 91.456-73.28 165.568-163.712 165.568-22.4 0-43.776-4.48-63.232-12.8A453.12 453.12 0 0 1 515.456 1024c-104.128 0-200.256-35.2-277.248-94.4-22.336 11.52-47.68 18.112-74.496 18.112C73.28 947.712 0 873.536 0 782.08c0-54.208 25.792-102.4 65.6-132.544a471.232 471.232 0 0 1-8.448-89.216 463.68 463.68 0 0 1 297.728-434.432z m7.872 103.616a364.672 364.672 0 0 0-208.64 330.56c0 19.2 1.536 38.08 4.352 56.512l5.248-0.064c90.432 0 163.712 74.112 163.712 165.568a166.4 166.4 0 0 1-18.816 77.12 355.712 355.712 0 0 0 205.696 65.216 355.712 355.712 0 0 0 205.824-65.28 166.272 166.272 0 0 1-23.552-85.76c0-91.392 73.28-165.568 163.712-165.568 3.712 0 7.424 0.128 11.072 0.384a371.84 371.84 0 0 0 3.136-48.128c0-146.752-85.76-273.216-209.408-330.88a163.776 163.776 0 0 1-151.232 102.016 163.776 163.776 0 0 1-151.04-101.76z" fill="#e6e6e6" p-id="1143"></path></svg>