<?xml version="1.0" standalone="no"?><!DOCTYPE svg PUBLIC "-//W3C//DTD SVG 1.1//EN" "http://www.w3.org/Graphics/SVG/1.1/DTD/svg11.dtd"><svg t="1522373377744" class="icon" style="" viewBox="0 0 1024 1024" version="1.1" xmlns="http://www.w3.org/2000/svg" p-id="7842" xmlns:xlink="http://www.w3.org/1999/xlink" width="200" height="200"><defs><style type="text/css"></style></defs><path d="M639.959047 0.163814c-212.036474 0-383.93857 171.902096-383.93857 383.93857 0 64.829307 16.217565 125.829467 44.639258 179.417053l-266.955047 266.893617 0.225244 0.184291c-20.865781 20.517677-33.848024 48.918893-33.848024 80.494001 0 62.351624 50.557031 112.908655 112.908655 112.908655 31.513678 0 59.955847-12.982243 80.473524-33.888978l-0.06143-0.06143 266.87314-266.832187c53.628539 28.503599 114.731083 44.803072 179.724204 44.803072 212.036474 0 383.93857-171.902096 383.93857-383.93857s-171.902096-383.93857-383.93857-383.93857zM153.473044 950.160934c-10.299792 10.68885-24.572068 17.364262-40.50296 17.364262-31.18605 0-56.474804-25.2478-56.474804-56.433851 0-15.930891 6.716365-30.162214 17.364262-40.50296l-0.286674-0.245721 258.068149-258.068149c22.56535 30.428411 49.430811 57.293873 79.797792 79.920653l-257.965765 257.965765zM639.959047 704.071669c-176.673172 0-319.948808-143.296113-319.948808-319.948808 0-176.673172 143.275636-319.948808 319.948808-319.948808 176.652696 0 319.948808 143.275636 319.948808 319.948808 0 176.652696-143.296113 319.948808-319.948808 319.948808zM639.959047 160.12798c8.804991 0 15.992321 7.166853 15.992321 15.992321s-7.207807 15.992321-15.992321 15.992321c-106.028475 0-191.969285 85.961286-191.969285 191.969285 0 8.825468-7.166853 15.992321-15.992321 15.992321s-15.992321-7.166853-15.992321-15.992321c0-123.699888 100.233563-223.974404 223.974404-223.974404z" p-id="7843"></path></svg>