<?xml version="1.0" standalone="no"?><!DOCTYPE svg PUBLIC "-//W3C//DTD SVG 1.1//EN" "http://www.w3.org/Graphics/SVG/1.1/DTD/svg11.dtd"><svg t="1550653385044" class="icon" style="" viewBox="0 0 1024 1024" version="1.1" xmlns="http://www.w3.org/2000/svg" p-id="1268" xmlns:xlink="http://www.w3.org/1999/xlink" width="200" height="200"><defs><style type="text/css"></style></defs><path d="M512 0C292.928 0 98.177829 139.214629 27.392 346.428343l69.215086 23.643429C157.2864 192.464457 324.214857 73.142857 512 73.142857c217.3568 0 398.321371 158.857143 432.892343 366.571886l-63.036343-42.0352-40.572343 60.856686 125.856914 83.893029c6.107429 4.072229 13.178514 6.142171 20.286171 6.142171 5.928229 0 11.856457-1.428114 17.250743-4.320914C1016.572343 537.892571 1024 525.500343 1024 512 1024 229.677714 794.322286 0 512 0z" p-id="1269"></path><path d="M512 950.857143c-217.3568 0-398.321371-158.857143-432.892343-366.571886l63.036343 42.0352 40.572343-60.856686-125.856914-83.893029c-11.214629-7.5008-25.678629-8.1792-37.535086-1.821257C7.427657 486.107429 0 498.499657 0 512c0 282.322286 229.677714 512 512 512 219.106743 0 413.856914-139.214629 484.608-346.428343l-69.215086-23.643429C866.750171 831.535543 699.821714 950.857143 512 950.857143z" p-id="1270"></path><path d="M475.428571 321.857829l256 0 0 51.214629-256 0 0-51.214629Z" p-id="1271"></path><path d="M292.571429 292.571429l109.714286 0 0 109.714286-109.714286 0 0-109.714286Z" p-id="1272"></path><path d="M475.428571 504.714971l256 0 0 51.214629-256 0 0-51.214629Z" p-id="1273"></path><path d="M292.571429 475.428571l109.714286 0 0 109.714286-109.714286 0 0-109.714286Z" p-id="1274"></path><path d="M475.428571 687.572114l256 0 0 51.214629-256 0 0-51.214629Z" p-id="1275"></path><path d="M292.571429 658.285714l109.714286 0 0 109.714286-109.714286 0 0-109.714286Z" p-id="1276"></path></svg>