<?xml version="1.0" standalone="no"?><!DOCTYPE svg PUBLIC "-//W3C//DTD SVG 1.1//EN" "http://www.w3.org/Graphics/SVG/1.1/DTD/svg11.dtd"><svg t="1541053012093" class="icon" style="" viewBox="0 0 1024 1024" version="1.1" xmlns="http://www.w3.org/2000/svg" p-id="1942" xmlns:xlink="http://www.w3.org/1999/xlink" width="200" height="200"><defs><style type="text/css"></style></defs><path d="M588.8 947.2a25.6 25.6 0 0 1-25.6-25.6v-102.4a25.6 25.6 0 1 1 51.2 0v102.4a25.6 25.6 0 0 1-25.6 25.6zM896 640a25.6 25.6 0 0 1-25.6 25.6h-102.4a25.6 25.6 0 1 1 0-51.2h102.4a25.6 25.6 0 0 1 25.6 25.6zM796.6976 847.8976a25.5744 25.5744 0 0 1-36.1984 0l-72.3968-72.3968a25.5744 25.5744 0 1 1 36.1984-36.1984l72.3968 72.3968a25.5744 25.5744 0 0 1 0 36.1984zM435.2 76.8a25.6 25.6 0 0 1 25.6 25.6v102.4a25.6 25.6 0 1 1-51.2 0V102.4a25.6 25.6 0 0 1 25.6-25.6zM128 384a25.6 25.6 0 0 1 25.6-25.6h102.4a25.6 25.6 0 1 1 0 51.2H153.6a25.6 25.6 0 0 1-25.6-25.6zM227.3024 176.1024a25.5744 25.5744 0 0 1 36.1984 0l72.3968 72.3968a25.5744 25.5744 0 1 1-36.1984 36.1984L227.3024 212.3008a25.5744 25.5744 0 0 1 0-36.1984z" fill="#e6e6e6" p-id="1943"></path><path d="M617.7792 628.1472c-19.5328 0-39.7312-5.12-58.3168-15.8464l-36.1984-20.8896c-52.1472-30.1312-72.32-93.1072-44.9792-140.416a25.6 25.6 0 1 1 44.3392 25.6c-13.2096 22.8864-1.4336 54.4768 26.2656 70.4768l36.1984 20.8896c27.6992 16 60.9792 10.368 74.1632-12.4928L843.008 237.184c6.0928-10.5472 7.04-23.424 2.688-36.2496-4.736-14.0032-15.0272-26.1632-28.9792-34.2272l-36.1728-20.864c-13.952-8.064-29.5424-10.88-44.1344-7.9872-13.312 2.6624-23.9872 9.9328-30.0544 20.4544l-84.0704 145.6128a25.6256 25.6256 0 0 1-34.9696 9.3696 25.5744 25.5744 0 0 1-9.3696-34.9696l84.0704-145.6128c13.5424-23.4752 36.4032-39.4752 64.3584-45.0816a114.7648 114.7648 0 0 1 79.7696 13.8752l36.1728 20.864c24.7296 14.2848 43.1872 36.3776 51.8912 62.1824 9.088 26.9824 6.6816 54.784-6.8864 78.2336l-183.7568 318.2848c-17.5616 30.4384-50.5856 47.0784-85.7856 47.0784z" fill="#e6e6e6" p-id="1944"></path><path d="M353.0752 861.6704a116.992 116.992 0 0 1-58.4192-15.9488l-36.1984-20.8896c-52.1472-30.1056-72.32-93.1072-45.0048-140.416l183.7568-318.2848c27.3152-47.2832 91.9552-61.3376 144.128-31.232l36.1984 20.8896c52.1472 30.1312 72.32 93.1072 45.0048 140.416a25.6 25.6 0 0 1-44.3392-25.6c13.2352-22.8864 1.4336-54.4768-26.24-70.4768l-36.1984-20.8896c-27.6992-16-60.9792-10.368-74.1888 12.4672l-183.7568 318.2848c-13.2096 22.8864-1.4336 54.5024 26.2656 70.4768l36.1984 20.8896c13.952 8.064 29.6448 10.88 44.1344 8.0128 13.312-2.6624 23.9872-9.9584 30.0544-20.48l84.0704-145.6128a25.5744 25.5744 0 1 1 44.3392 25.6l-84.0704 145.6128c-13.568 23.4752-36.4032 39.4752-64.3584 45.0816a109.056 109.056 0 0 1-21.376 2.0992z" fill="#e6e6e6" p-id="1945"></path></svg>